# xmcd
# 
# Track frame offsets:
#   150
#   13598
#   26833
#   40875
#   53783
#   73423
#   90545
#   103688
#   118560
#   132713
# 
# Disc length: 1984 seconds
# 
# Revision: 5
# Processed by: cddbd v1.5.2PL0 Copyright (c) Steve Scherf et al.
# Submitted via: Synapstar 1.0 
# 
DISCID=8d07be0a
DTITLE=Brooks and Dunn - Brand New Man
DYEAR=1991
DGENRE=Country
TTITLE0=Brand New Man
TTITLE1=My Next Broken Heart
TTITLE2=Cool Drink Of Water
TTITLE3=Cheating On The Blues
TTITLE4=Neon Moon
TTITLE5=Lost And Found
TTITLE6=I've Got A Lot To Learn
TTITLE7=Boot Scootin' Boogie
TTITLE8=I'm No Good
TTITLE9=Still In Love With You
EXTD=MediaType: Audio CD Producer: Unknown
EXTT0=
EXTT1=
EXTT2=
EXTT3=
EXTT4=
EXTT5=
EXTT6=
EXTT7=
EXTT8=
EXTT9=
PLAYORDER=
